<svg id="Layer_1" data-name="Layer 1" xmlns="http://www.w3.org/2000/svg" viewBox="0 0 72.44 58.84"><defs><style>.cls-1{fill:#0e548b;}.cls-2{fill:#f4792b;}</style></defs><path class="cls-1" d="M37.76,33.09A8.56,8.56,0,0,1,40.87,27a10.52,10.52,0,0,1,13.35,0,8.55,8.55,0,0,1,3.1,6,8.38,8.38,0,0,1-2.61,6.5,10.5,10.5,0,0,1-14.34,0A8.41,8.41,0,0,1,37.76,33.09Z"/><path class="cls-2" d="M22.19,38A17.76,17.76,0,0,0,23,42.19a22.35,22.35,0,0,0,4.8,8.32,24.94,24.94,0,0,0,8.42,6,27.54,27.54,0,0,0,22.08,0,25,25,0,0,0,8.41-6.06,22.42,22.42,0,0,0,4.8-8.34,20.84,20.84,0,0,0,.76-9.28,21.58,21.58,0,0,0-3.07-8.39,23.38,23.38,0,0,0-5.59-6.16h0L41,.9,40.89.85a5,5,0,0,0-5.62,0C33.62,2,33.43,3.92,34.9,5.13h0l9.44,7.67-28.77,0h0c-2.38,0-4.66,1.56-5.12,3.54s1.15,3.67,3.63,3.68h0l14.58,0-26,20-.1.08C0,42-.75,45.09.79,47.07s4.91,2,7.39,0l14.2-11.62A21.45,21.45,0,0,0,22.19,38Zm36.49,5.25a16.42,16.42,0,0,1-22.92,0,13.65,13.65,0,0,1-3.13-4.9,12.67,12.67,0,0,1-.71-5.47,12.82,12.82,0,0,1,1.56-5.15A14.39,14.39,0,0,1,37,23.6a16.57,16.57,0,0,1,20.51,0A14.07,14.07,0,0,1,61,27.7a12.94,12.94,0,0,1,1.57,5.15,12.63,12.63,0,0,1-.72,5.46A13.57,13.57,0,0,1,58.68,43.22Z"/></svg>